# xmcd
#
# Track frame offsets: 
#        183
#        20370
#        36688
#        49985
#        66350
#        81233
#        91823
#        105880
#        120375
#        136125
#        153450
#        167465
#        179658
#        189190
#        203535
#        221500
#
# Disc length: 3140 seconds
#
# Revision: 4
# Processed by: cddbd v1.5.2PL0 Copyright (c) Steve Scherf et al.
# Submitted via: ExactAudioCopyFreeDBPlugin 1.0
#
DISCID=d10c4210,e80c4210
DTITLE=Daliah Lavi - Wer hat mein Lied so zerstört, Ma
DYEAR=1900
DGENRE=Country
TTITLE0=Wer hat mein Lied so zerstört, Ma
TTITLE1=Willst du mit mir geh'n
TTITLE2=Jerusalem
TTITLE3=Worte wie Pfeile
TTITLE4=Oh, wann kommst du
TTITLE5=Du bist mein Problem
TTITLE6=Songs von gestern
TTITLE7=Liebeslied jener Sommernacht
TTITLE8=Weißt du was du für mich bist
TTITLE9=Fragen über Fragen
TTITLE10=Meine Art, Liebe zu zeigen
TTITLE11=Bei dir bin ich immer noch zuhaus
TTITLE12=Schalt dein Radio ein
TTITLE13=Karriere
TTITLE14=Nichts haut mich um, aber du
TTITLE15=Nicht mehr siebzehn-allererste Falten
EXTD=
EXTT0=
EXTT1=
EXTT2=
EXTT3=
EXTT4=
EXTT5=
EXTT6=
EXTT7=
EXTT8=
EXTT9=
EXTT10=
EXTT11=
EXTT12=
EXTT13=
EXTT14=
EXTT15=
PLAYORDER=
